<svg width="354" height="372" viewBox="0 0 354 372" fill="none" xmlns="http://www.w3.org/2000/svg">
<g clip-path="url(#clip0_2_1320)">
<g clip-path="url(#clip1_2_1320)">
<path fill-rule="evenodd" clip-rule="evenodd" d="M315.57 74.4711C307.233 63.4796 291.051 64.0389 277.256 64.0389C257.223 64.0389 240.983 47.7988 240.983 27.7653C240.983 22.2756 238.425 16.6705 233.231 14.8954C215.594 8.8685 196.678 5.59814 177 5.59814C81.0068 5.59814 3.18896 83.416 3.18896 179.409C3.18896 275.402 81.0068 353.22 177 353.22C272.993 353.22 350.811 275.402 350.811 179.409C350.811 139.988 337.687 103.632 315.57 74.4711Z" fill="white"/>
<mask id="mask0_2_1320" style="mask-type:luminance" maskUnits="userSpaceOnUse" x="3" y="5" width="348" height="349">
<path fill-rule="evenodd" clip-rule="evenodd" d="M315.57 74.4711C307.233 63.4796 291.051 64.0389 277.256 64.0389C257.223 64.0389 240.983 47.7988 240.983 27.7653C240.983 22.2756 238.425 16.6705 233.231 14.8954C215.594 8.8685 196.678 5.59814 177 5.59814C81.0068 5.59814 3.18896 83.416 3.18896 179.409C3.18896 275.402 81.0068 353.22 177 353.22C272.993 353.22 350.811 275.402 350.811 179.409C350.811 139.988 337.687 103.632 315.57 74.4711Z" fill="white"/>
</mask>
<g mask="url(#mask0_2_1320)">
<path d="M277.256 63.0311C257.779 63.0311 241.99 47.242 241.99 27.7651H239.975C239.975 48.3549 256.666 65.0463 277.256 65.0463V63.0311ZM177 6.60553C196.566 6.60553 215.371 9.85713 232.905 15.8487L233.556 13.9417C215.816 7.87945 196.791 4.59033 177 4.59033V6.60553ZM4.19635 179.409C4.19635 83.9723 81.5631 6.60553 177 6.60553V4.59033C80.4501 4.59033 2.18115 82.8593 2.18115 179.409H4.19635ZM177 352.212C81.5631 352.212 4.19635 274.846 4.19635 179.409H2.18115C2.18115 275.958 80.4501 354.228 177 354.228V352.212ZM349.803 179.409C349.803 274.846 272.437 352.212 177 352.212V354.228C273.549 354.228 351.818 275.958 351.818 179.409H349.803ZM314.767 75.0798C336.756 104.071 349.803 140.214 349.803 179.409H351.818C351.818 139.76 338.618 103.191 316.372 73.862L314.767 75.0798ZM241.99 27.7651C241.99 22.0433 239.32 15.9111 233.556 13.9417L232.905 15.8487C237.531 17.4295 239.975 22.5076 239.975 27.7651H241.99ZM277.256 65.0463C284.193 65.0463 291.579 64.9104 298.281 66.1245C304.962 67.3349 310.81 69.8636 314.767 75.0798L316.372 73.862C311.992 68.0868 305.582 65.3993 298.639 64.1415C291.717 62.8875 284.114 63.0311 277.256 63.0311V65.0463Z" fill="black"/>
</g>
<path d="M277.256 54.4668C292.003 54.4668 303.957 42.5121 303.957 27.7654C303.957 13.0186 292.003 1.06396 277.256 1.06396C262.509 1.06396 250.555 13.0186 250.555 27.7654C250.555 42.5121 262.509 54.4668 277.256 54.4668Z" fill="white" stroke="black" stroke-width="1.0076"/>
</g>
</g>
<defs>
<clipPath id="clip0_2_1320">
<rect width="352.66" height="370.78" fill="white" transform="translate(0.669922 0.560059)"/>
</clipPath>
<clipPath id="clip1_2_1320">
<rect width="352.66" height="352.66" fill="white" transform="translate(0.669922 0.560059)"/>
</clipPath>
</defs>
</svg>
